<svg xmlns="http://www.w3.org/2000/svg" viewBox="0 0 400 400" width="100%" height="100%">
  <rect width="400" height="400" fill="#07221A"/>
  
  <g transform="translate(0, -20)">
    <path d="M 120 140 L 200 320 L 280 140" fill="none" stroke="#C5A059" stroke-width="8" stroke-linejoin="bevel"/>
    
    <path d="M 190 100 C 130 100 100 160 140 220 L 200 320" fill="none" stroke="#C5A059" stroke-width="12" stroke-linecap="square"/>
    
    <path d="M 230 80 C 280 80 280 140 200 160 C 120 180 120 240 170 280" fill="none" stroke="#C5A059" stroke-width="12" stroke-linecap="square"/>
    
    <line x1="200" y1="60" x2="200" y2="320" stroke="#C5A059" stroke-width="6" />

    <path d="M 200 175 L 206 193 L 225 193 L 210 205 L 216 223 L 200 211 L 184 223 L 190 205 L 175 193 L 194 193 Z" fill="#C5A059"/>
  </g>

  <text x="200" y="340" font-family="Times New Roman, serif" font-size="26" font-weight="bold" fill="#C5A059" text-anchor="middle" letter-spacing="6">CONTE DI SAVOIA</text>
  
  <text x="200" y="365" font-family="Arial, sans-serif" font-size="11" fill="#EFECD5" text-anchor="middle" letter-spacing="4">CHICAGO • EST. 1948</text>
</svg>
